<?xml version="1.0" encoding="UTF-8"?>
<svg width="236px" height="215px" viewBox="0 0 236 215" version="1.1" xmlns="http://www.w3.org/2000/svg" xmlns:xlink="http://www.w3.org/1999/xlink">
    <!-- Generator: Sketch 52.6 (67491) - http://www.bohemiancoding.com/sketch -->
    <title>Shape Copy</title>
    <desc>Created with Sketch.</desc>
    <g id="Logos" stroke="none" stroke-width="1" fill="none" fill-rule="evenodd">
        <g id="Desktop-HD" transform="translate(-484.000000, -459.000000)" fill="#000000">
            <g id="ecosystem-copy" transform="translate(484.000000, 459.000000)">
                <path d="M187.887051,41.3636364 C184.46261,33.8089818 181.272191,18.8833273 172.490539,15.5643091 C161.185172,11.2922727 154.196553,39.2607091 152.531474,46.3272727 L150.847875,46.3272727 C147.997542,34.2193091 144.172406,17.0583636 130.644689,13.2363636 C124.381701,39.0869818 137.187154,66.9743455 149.164276,89.3454545 C161.952893,83.3394545 168.183893,64.5305818 169.367463,51.2909091 L171.051062,51.2909091 L184.519853,91 C195.355495,87.9390909 199.125073,77.4012909 203.037757,67.8363636 C211.437232,47.3067636 218.484777,22.0584 213.141034,0 C196.970066,4.50036364 192.050591,27.2255455 187.887051,41.3636364 Z M24.2226613,97 C38.7367825,89.8912857 45.643444,67.39075 47.8640454,51.9642857 L49.5527157,51.9642857 C51.2700934,59.400375 55.861588,78.5838571 64.9196154,79.8154107 C76.4599883,81.3812679 82.5104939,55.1150536 83.3261217,46.7678571 L85.014792,46.7678571 C88.6944046,59.8091607 92.5715916,76.7685714 105.278836,83.1428571 C109.966584,62.9460714 104.353444,41.406875 97.1529541,22.5178571 C95.3021714,17.6609286 91.5009746,4.56592857 84.9725752,4.56592857 C74.2765376,4.56592857 68.2631826,33.4857857 66.4394187,41.5714286 L64.7507484,41.5714286 L51.241386,0 C27.4784176,11.64 14.5702218,73.5346607 24.2226613,97 Z M0,115.327902 C17.4071732,192.846616 97.698864,236.79221 170.021226,204.056376 C196.342846,192.14207 217.222119,170.913811 229.260289,144.25851 C232.370677,137.371324 238.479773,124.905635 234.917662,115.869075 C231.370552,106.868252 196.967924,121.575212 188.371851,125.416176 C187.165033,125.964155 186.31326,127.100958 186.114902,128.43517 C186.114902,128.43517 186.114902,128.43517 186.114902,128.43517 C185.8332,130.322466 186.333263,132.245501 187.498408,133.741383 C188.661887,135.237266 190.383769,136.169853 192.249001,136.316208 C198.551455,136.811432 206.692471,137.451308 206.692471,137.451308 C180.544207,189.12648 109.84538,211.974853 60.0074917,170.690875 C48.8527657,161.451801 38.9015234,150.473486 32.2040205,137.451308 C28.9652829,131.154647 25.9615745,123.101727 20.4558872,118.780855 C15.1668935,114.628462 7.14255838,113.205757 0,115.327902 Z" id="Shape-Copy"></path>
            </g>
        </g>
    </g>
</svg>