<?xml version="1.0" encoding="utf-8"?>
<!-- Generator: Adobe Illustrator 21.0.0, SVG Export Plug-In . SVG Version: 6.00 Build 0)  -->
<svg version="1.1" id="图层_1" xmlns="http://www.w3.org/2000/svg" xmlns:xlink="http://www.w3.org/1999/xlink" x="0px" y="0px"
	 viewBox="0 0 1097.4 846.9" style="enable-background:new 0 0 1097.4 846.9;" xml:space="preserve">
<style type="text/css">
	.st0{fill:#2CA6E0;}
</style>
<g>
	<g>
		<path class="st0" d="M825.2,464.7c-7.6,0-14.6,2.8-20,7.4l-55.6-47.6l42.7-131.3c0.5,0,0.9,0.1,1.4,0.1c12,0,21.7-9.7,21.7-21.7
			c0-12-9.7-21.7-21.7-21.7c-0.5,0-1,0.1-1.4,0.1L755,135.4c6.1-3.8,10.2-10.6,10.2-18.3c0-12-9.7-21.7-21.7-21.7
			c-5.3,0-10.1,2-13.9,5.1l-98.3-71c1-2.5,1.6-5.2,1.6-8c0-12-9.7-21.7-21.7-21.7c-10.1,0-18.6,7-20.9,16.4h-119
			C469,7,460.6,0,450.5,0c-12,0-21.7,9.7-21.7,21.7c0,2.8,0.6,5.5,1.6,8l-98.3,71c-3.8-3.2-8.6-5.1-13.9-5.1
			c-12,0-21.7,9.7-21.7,21.7c0,7.7,4.1,14.5,10.2,18.3l-37.1,114.1c-0.5,0-1.1-0.2-1.6-0.2c-12,0-21.7,9.7-21.7,21.7
			c0,12,9.7,21.7,21.7,21.7c0.4,0,0.8-0.1,1.3-0.1l37.4,115.2c-6.1,3.8-10.2,10.6-10.2,18.3c0,12,9.7,21.7,21.7,21.7
			c5.2,0,9.9-1.9,13.6-4.9l98.5,70.8c-1,2.5-1.6,5.1-1.6,7.9c0,12,9.7,21.7,21.7,21.7c10.1,0,18.6-7,20.9-16.4h119
			c2.4,9.4,10.8,16.4,20.9,16.4c12,0,21.7-9.7,21.7-21.7c0-2.8-0.6-5.5-1.5-7.9l111.8-80.8l55.1,47.2c-2.8,4.7-4.6,10.2-4.6,16.1
			c0,17.4,14.1,31.5,31.5,31.5c17.4,0,31.5-14.1,31.5-31.5C856.7,478.8,842.6,464.7,825.2,464.7z M747,145l35.2,108.3
			c-4.6,2.9-8.1,7.6-9.4,13l-12.9,0h-5.1c-1.7-7.5-7.2-13.5-14.5-15.8L747,145z M736.9,137.7l-7.2,112.1c-0.5,0.1-1,0.2-1.5,0.4
			l-44.8-84.6c4.4-4,7.2-9.6,7.2-16c0-1.2-0.2-2.4-0.4-3.6l5.8-2.5l30.4-13.2C729.1,133.7,732.7,136.3,736.9,137.7z M615.5,250.4
			c-1.3-0.3-2.7-0.4-4.1-0.4c-2.1,0-4,0.4-5.9,0.9l-59.7-103.4c2.2-2.1,4-4.5,5.1-7.3l96.6,12c0.7,5.7,3.5,10.6,7.7,14.1
			L615.5,250.4z M664.8,170.8c1.3,0.3,2.7,0.4,4.1,0.4c1.8,0,3.5-0.3,5.2-0.7l44.8,84.7c-3.2,2.9-5.5,6.8-6.4,11.1l-39,0l-41.2,0
			c-1.1-4.3-3.5-8.1-6.8-11L664.8,170.8z M596.2,256.1c-2.8,2.8-4.9,6.3-5.9,10.2h-119c-1-4-3-7.5-5.9-10.2l59.8-103.5
			c1.8,0.5,3.6,0.8,5.6,0.8c1.9,0,3.8-0.3,5.6-0.8L596.2,256.1z M456.3,250.9c-1.9-0.5-3.8-0.9-5.8-0.9c-1.4,0-2.8,0.2-4.2,0.4
			l-39.7-84.2c4.2-3.5,7-8.4,7.7-14.1l96.4-12.5c1.1,2.9,2.9,5.5,5.1,7.6L456.3,250.9z M436.8,255c-3.5,2.9-6.1,6.8-7.2,11.4
			l-38.4,0l-41.2,0c-1.1-4.3-3.4-8-6.6-10.8l44.5-85c1.6,0.4,3.3,0.7,5,0.7c1.4,0,2.8-0.2,4.2-0.4L436.8,255z M349.9,276.9l41.2,0
			l38.4,0c1.1,4.6,3.7,8.5,7.2,11.4L397,372.6c-1.3-0.3-2.7-0.4-4.1-0.4c-1.8,0-3.4,0.3-5.1,0.7l-44.5-85.1
			C346.5,284.9,348.8,281.2,349.9,276.9z M446.3,292.9c1.3,0.3,2.7,0.4,4.2,0.4c2.1,0,4-0.4,5.9-0.9l59.5,103
			c-2.2,2.2-3.9,4.8-5.1,7.7l-96.4-12c-0.7-5.7-3.5-10.6-7.7-14L446.3,292.9z M465.5,287.2c2.8-2.8,4.9-6.3,5.9-10.2h119
			c1,4,3,7.5,5.9,10.2l-59.5,103c-1.9-0.5-3.8-0.9-5.9-0.9s-4,0.4-5.9,0.9L465.5,287.2z M605.4,292.4c1.9,0.5,3.8,0.9,5.9,0.9
			c1.4,0,2.8-0.2,4.2-0.4l39.7,84.3c-4.2,3.4-7,8.4-7.7,14l-96.5,12c-1.1-2.9-2.9-5.6-5.1-7.7L605.4,292.4z M625,288.3
			c3.5-2.9,6.1-6.8,7.2-11.4l36,0l44.6,0c1.1,4.1,3.4,7.6,6.5,10.3L674,372.9c-1.7-0.4-3.4-0.7-5.1-0.7c-1.4,0-2.8,0.2-4.2,0.4
			L625,288.3z M625.2,38.2l98.3,71c-1,2.5-1.6,5.2-1.6,8c0,1.2,0.2,2.3,0.3,3.5l-36.3,15.7c-4-5.1-10.1-8.4-17-8.4
			c-1.3,0-2.5,0.2-3.7,0.4l-38.2-84.8l-2.2-4.9C624.9,38.4,625,38.3,625.2,38.2z M603.3,41.7c2.5,1,5.2,1.6,8.1,1.6
			c1.3,0,2.6-0.2,3.8-0.4l5.8,12.9l34.6,76.8c-2.9,2.3-5.3,5.3-6.7,8.9l-96.5-12.5c-0.5-4.1-2.1-7.8-4.6-10.8L603.3,41.7z
			 M471.4,26.9h119c0.8,3.1,2.3,6,4.3,8.4l-56.2,76.2c-2.4-0.9-4.9-1.4-7.6-1.4c-2.8,0-5.6,0.6-8,1.6l-55.8-76.2
			C469.1,33,470.6,30.1,471.4,26.9z M450.5,43.3c2.9,0,5.6-0.6,8.1-1.6l55.6,76.5c-2.5,3-4.1,6.7-4.6,10.8L413,141.6
			c-1.4-3.6-3.8-6.6-6.7-8.9L446.7,43C447.9,43.2,449.2,43.3,450.5,43.3z M436.6,38.2c0.2,0.1,0.3,0.3,0.5,0.4l-40.4,89.7
			c-1.2-0.2-2.5-0.4-3.8-0.4c-7,0-13.1,3.4-17.1,8.5l-36.3-15.7c0.2-1.1,0.4-2.3,0.4-3.5c0-2.8-0.6-5.5-1.6-8L436.6,38.2z
			 M335.3,130.3l36.3,15.7c-0.2,1.1-0.4,2.3-0.4,3.5c0,6.4,2.8,12.1,7.3,16.1l-44.5,85c-0.4-0.1-0.8-0.2-1.2-0.3L325,137.6
			C329.1,136.3,332.7,133.7,335.3,130.3z M314.9,398.6l-35.5-109.2c4.6-2.8,7.9-7.3,9.4-12.5l13.5,0l5.7,0
			c1.8,7.2,7.2,12.9,14.2,15.2L314.9,398.6z M308,266.4l-5.7,0l-13.1,0c-1.3-5.7-4.7-10.5-9.5-13.5l35.2-108.2l7.4,106.5
			C315.3,253.5,309.8,259.2,308,266.4z M325,405.6l7.8-112.7c0.4-0.1,0.8-0.2,1.2-0.3l41.5,79.4l3,5.7c-4.4,4-7.2,9.7-7.2,16.1
			c0,1.2,0.2,2.3,0.3,3.4l-36.4,15.6C332.6,409.5,329.1,407,325,405.6z M436.6,505.1l-98.3-70.7c1.1-2.6,1.7-5.4,1.7-8.3
			c0-1.2-0.2-2.3-0.3-3.5l36.2-15.7c4,5.2,10.1,8.5,17.1,8.5c1.3,0,2.5-0.2,3.7-0.4l40.4,89.6C436.9,504.9,436.7,505,436.6,505.1z
			 M458.5,501.5c-2.5-1-5.2-1.6-8.1-1.6c-1.3,0-2.6,0.2-3.8,0.4L438,481l-31.7-70.3c3-2.4,5.4-5.5,6.8-9.1l23.4,2.9l73,9.1
			c0.5,4.2,2.2,8,4.8,11.1l-9.4,13L458.5,501.5z M590.4,516.3h-119c-0.8-3.2-2.3-6.1-4.4-8.5l55.8-76.8c2.5,1,5.2,1.6,8.1,1.6
			s5.6-0.6,8.1-1.6l55.8,76.8C592.7,510.3,591.2,513.1,590.4,516.3z M615.1,500.3c-1.2-0.2-2.5-0.4-3.8-0.4c-2.9,0-5.6,0.6-8.1,1.6
			l-22.9-31.4l-32.9-45.3c2.6-3.1,4.3-6.9,4.8-11.1l74.1-9.2l22.3-2.8c1.3,3.5,3.6,6.4,6.3,8.7l-38.6,86.9L615.1,500.3z
			 M625.2,505.1c-0.2-0.1-0.3-0.3-0.5-0.4l1.4-3.1l39-86.5c1.2,0.2,2.5,0.4,3.8,0.4c6.9,0,13-3.3,17-8.4l47,20.1L625.2,505.1z
			 M690.2,397.3c0.2-1.1,0.3-2.3,0.3-3.5c0-6.4-2.8-12.1-7.2-16l25-47.3l20.3-38.4c0.3,0.1,0.6,0.1,0.9,0.2l8.1,125.5L690.2,397.3z
			 M740.2,291.6c6.9-2.2,12.2-7.7,14.2-14.7h5.5l12.9,0c1.4,5.5,4.8,10.1,9.4,13L747,398.3L740.2,291.6z"/>
	</g>
	<g>
		<path class="st0" d="M164.9,843H77.4c-11.1,0-21.4-1.9-30.8-5.8c-9.4-3.9-17.6-9.3-24.5-16.3c-6.9-7-12.3-15.3-16.2-24.9
			C1.9,786.4,0,775.9,0,764.5c0-11.4,1.9-21.9,5.8-31.5c3.9-9.6,9.3-17.9,16.2-24.9c6.9-7,15.1-12.4,24.5-16.3
			C56,688,66.3,686,77.4,686c11,0,21.2,1.9,30.6,5.8c9.4,3.9,17.6,9.3,24.5,16.3c6.9,7,12.3,15.3,16.2,24.8c3.9,9.6,5.8,20,5.8,31.4
			c0,13.5-3,25.9-9,37c-6,11.2-14.9,20.2-26.9,27.1v0.4h46.3V843z M16.4,764.5c0,8.6,1.4,16.8,4.2,24.6c2.8,7.8,6.8,14.6,12,20.6
			c5.2,6,11.6,10.7,19.1,14.2c7.6,3.5,16.1,5.3,25.6,5.3c9.4,0,17.8-1.8,25.4-5.3c7.6-3.5,14-8.3,19.2-14.2
			c5.3-6,9.3-12.8,12.2-20.6c2.9-7.8,4.3-15.9,4.3-24.6c0-8.6-1.4-16.8-4.3-24.6c-2.9-7.8-7-14.6-12.2-20.6
			c-5.3-6-11.7-10.7-19.2-14.2c-7.6-3.5-16-5.3-25.4-5.3c-9.5,0-18.1,1.8-25.6,5.3c-7.6,3.5-13.9,8.3-19.1,14.2
			c-5.2,6-9.2,12.8-12,20.6C17.8,747.7,16.4,755.9,16.4,764.5z"/>
		<path class="st0" d="M402.9,843h-15.6V703.7h-51.2v-13.8h118v13.8h-51.2V843z"/>
		<path class="st0" d="M703.4,846.9c-11.5,0-21-2-28.3-5.9c-7.3-4-13.2-9-17.5-15c-4.3-6.1-7.3-12.6-9-19.8
			c-1.7-7.1-2.5-13.9-2.5-20.2v-96h15.6v94.3c0,6.2,0.7,12.2,2.2,18.1c1.4,5.8,3.8,11,7,15.6c3.2,4.5,7.5,8.2,12.9,11
			c5.3,2.8,11.9,4.2,19.7,4.2c7.8,0,14.3-1.4,19.7-4.2c5.3-2.8,9.6-6.5,12.9-11c3.2-4.5,5.6-9.7,7-15.6c1.4-5.8,2.2-11.9,2.2-18.1
			v-94.3h15.6v96c0,6.3-0.8,13.1-2.5,20.2c-1.7,7.1-4.6,13.7-9,19.8c-4.3,6.1-10.2,11.1-17.6,15
			C724.2,844.9,714.8,846.9,703.4,846.9z"/>
		<path class="st0" d="M1089.3,689.8l-67.3,35.1l-63.1-35.1l-12.4,7.8V843h15.6V710h0.4l119.3,71.1V843h15.6V700.7L1089.3,689.8z
			 M1039.6,737l42.4-22.7l-0.1,47.8L1039.6,737z"/>
	</g>
</g>
<g>
	<g>
		<path class="st0" d="M2337,675.2c-7.1,0-13.6,2.6-18.7,6.9l-51.9-44.4l39.8-122.6c0.5,0,0.9,0.1,1.3,0.1
			c11.2,0,20.2-9.1,20.2-20.2c0-11.2-9.1-20.2-20.2-20.2c-0.5,0-0.9,0.1-1.3,0.1l-34.8-107c5.7-3.6,9.5-9.9,9.5-17.1
			c0-11.2-9.1-20.2-20.2-20.2c-4.9,0-9.4,1.8-12.9,4.8l-91.7-66.2c0.9-2.3,1.5-4.8,1.5-7.5c0-11.2-9.1-20.2-20.2-20.2
			c-9.5,0-17.3,6.5-19.5,15.3h-111.1c-2.2-8.8-10.1-15.3-19.5-15.3c-11.2,0-20.2,9.1-20.2,20.2c0,2.6,0.5,5.2,1.5,7.5l-91.7,66.2
			c-3.5-3-8-4.8-12.9-4.8c-11.2,0-20.2,9.1-20.2,20.2c0,7.2,3.8,13.5,9.5,17.1l-34.6,106.5c-0.5,0-1-0.2-1.5-0.2
			c-11.2,0-20.2,9.1-20.2,20.2c0,11.2,9.1,20.2,20.2,20.2c0.4,0,0.8-0.1,1.2-0.1l34.9,107.6c-5.7,3.6-9.5,9.9-9.5,17.1
			c0,11.2,9.1,20.2,20.2,20.2c4.8,0,9.2-1.8,12.7-4.6l92,66.1c-0.9,2.3-1.4,4.8-1.4,7.4c0,11.2,9.1,20.2,20.2,20.2
			c9.5,0,17.3-6.5,19.5-15.3h111.1c2.2,8.8,10.1,15.3,19.5,15.3c11.2,0,20.2-9.1,20.2-20.2c0-2.6-0.5-5.1-1.4-7.4l104.3-75.4
			l51.4,44c-2.6,4.4-4.3,9.5-4.3,15c0,16.2,13.1,29.4,29.4,29.4c16.2,0,29.4-13.1,29.4-29.4C2366.4,688.4,2353.2,675.2,2337,675.2z
			 M2264.1,376.8l32.9,101.1c-4.3,2.7-7.5,7.1-8.8,12.2l-12.1,0h-4.8c-1.6-7-6.8-12.6-13.5-14.8L2264.1,376.8z M2254.6,370
			l-6.7,104.7c-0.5,0.1-0.9,0.2-1.4,0.3l-41.8-79c4.1-3.7,6.7-9,6.7-14.9c0-1.1-0.2-2.3-0.3-3.3l5.4-2.4l28.4-12.3
			C2247.3,366.3,2250.7,368.7,2254.6,370z M2141.2,475.2c-1.3-0.2-2.5-0.4-3.9-0.4c-1.9,0-3.7,0.4-5.5,0.8l-55.7-96.5
			c2-1.9,3.7-4.2,4.8-6.9l90.2,11.2c0.6,5.3,3.3,9.9,7.2,13.1L2141.2,475.2z M2187.3,400.9c1.2,0.2,2.5,0.4,3.8,0.4
			c1.7,0,3.3-0.3,4.8-0.6l41.8,79c-3,2.7-5.1,6.3-6,10.4l-36.4,0l-38.5,0c-1-4.1-3.3-7.6-6.3-10.2L2187.3,400.9z M2123.3,480.5
			c-2.6,2.6-4.5,5.9-5.5,9.5h-111.1c-0.9-3.7-2.8-7-5.5-9.6l55.8-96.6c1.7,0.4,3.4,0.8,5.2,0.8c1.8,0,3.5-0.3,5.2-0.8L2123.3,480.5z
			 M1992.7,475.6c-1.7-0.5-3.6-0.8-5.5-0.8c-1.3,0-2.6,0.1-3.9,0.4l-37-78.6c3.9-3.2,6.6-7.9,7.2-13.2l90-11.6
			c1.1,2.7,2.7,5.1,4.7,7.1L1992.7,475.6z M1974.4,479.5c-3.3,2.7-5.7,6.4-6.8,10.6l-35.8,0l-38.5,0c-1-4-3.2-7.4-6.1-10.1
			l41.6-79.3c1.5,0.4,3.1,0.6,4.7,0.6c1.3,0,2.6-0.1,3.9-0.4L1974.4,479.5z M1893.4,500l38.5,0l35.8,0c1.1,4.3,3.5,7.9,6.8,10.6
			l-37.1,78.7c-1.2-0.2-2.5-0.4-3.8-0.4c-1.6,0-3.2,0.2-4.7,0.6l-41.5-79.4C1890.2,507.4,1892.4,503.9,1893.4,500z M1983.3,514.9
			c1.3,0.2,2.6,0.4,3.9,0.4c1.9,0,3.7-0.4,5.5-0.9l55.5,96.2c-2.1,2-3.7,4.5-4.8,7.2l-90-11.2c-0.7-5.3-3.3-9.9-7.2-13.1
			L1983.3,514.9z M2001.3,509.5c2.6-2.6,4.5-5.9,5.5-9.6h111.1c0.9,3.7,2.8,7,5.5,9.6l-55.5,96.2c-1.8-0.5-3.6-0.8-5.5-0.8
			c-1.9,0-3.7,0.4-5.5,0.8L2001.3,509.5z M2131.9,514.4c1.8,0.5,3.6,0.9,5.5,0.9c1.3,0,2.6-0.1,3.9-0.4l37.1,78.7
			c-3.9,3.2-6.5,7.8-7.2,13.1l-90.1,11.2c-1.1-2.7-2.7-5.2-4.7-7.2L2131.9,514.4z M2150.2,510.6c3.3-2.7,5.7-6.4,6.8-10.6l33.6,0
			l41.6,0c1.1,3.8,3.2,7.1,6.1,9.7l-42.3,79.9c-1.5-0.4-3.1-0.6-4.8-0.6c-1.3,0-2.6,0.1-3.9,0.4L2150.2,510.6z M2150.3,277.1
			l91.7,66.2c-0.9,2.3-1.5,4.8-1.5,7.5c0,1.1,0.2,2.2,0.3,3.2l-33.9,14.7c-3.7-4.7-9.4-7.9-15.9-7.9c-1.2,0-2.4,0.2-3.5,0.4
			l-35.7-79.2l-2.1-4.6C2150,277.3,2150.2,277.2,2150.3,277.1z M2129.8,280.4c2.3,0.9,4.9,1.5,7.5,1.5c1.2,0,2.4-0.2,3.5-0.4l5.4,12
			l32.3,71.7c-2.7,2.2-4.9,5-6.3,8.3l-90.1-11.6c-0.5-3.8-2-7.3-4.3-10.1L2129.8,280.4z M2006.8,266.6h111.1c0.7,2.9,2.1,5.6,4,7.9
			l-52.4,71.1c-2.2-0.8-4.6-1.3-7.1-1.3c-2.7,0-5.2,0.5-7.5,1.5l-52.1-71.2C2004.6,272.2,2006,269.6,2006.8,266.6z M1987.2,281.9
			c2.7,0,5.2-0.5,7.5-1.5l51.9,71.4c-2.3,2.8-3.8,6.3-4.3,10.1l-90,11.8c-1.3-3.3-3.5-6.2-6.3-8.4l37.7-83.7
			C1984.8,281.8,1986,281.9,1987.2,281.9z M1974.3,277.1c0.1,0.1,0.3,0.2,0.4,0.4l-37.7,83.7c-1.2-0.2-2.3-0.4-3.5-0.4
			c-6.5,0-12.3,3.1-16,7.9l-33.9-14.7c0.2-1.1,0.3-2.1,0.3-3.3c0-2.6-0.5-5.2-1.5-7.5L1974.3,277.1z M1879.8,363.1l33.9,14.7
			c-0.2,1.1-0.3,2.1-0.3,3.3c0,6,2.7,11.3,6.8,15l-41.6,79.3c-0.4-0.1-0.8-0.2-1.1-0.2l-7.3-105.2
			C1874,368.7,1877.3,366.3,1879.8,363.1z M1860.6,613.6l-33.1-101.9c4.3-2.6,7.4-6.8,8.8-11.7l12.6,0l5.4,0
			c1.7,6.7,6.7,12.1,13.3,14.2L1860.6,613.6z M1854.3,490.1l-5.4,0l-12.3,0c-1.2-5.3-4.4-9.8-8.8-12.6l32.8-101l6.9,99.4
			C1861,478,1856,483.4,1854.3,490.1z M1870.1,620.1l7.3-105.2c0.4-0.1,0.8-0.2,1.1-0.2l38.7,74.1l2.8,5.4c-4.1,3.7-6.8,9-6.8,15
			c0,1.1,0.2,2.1,0.3,3.1l-34,14.6C1877.2,623.7,1873.9,621.4,1870.1,620.1z M1974.2,713l-91.8-66c1-2.4,1.6-5,1.6-7.8
			c0-1.1-0.2-2.2-0.3-3.2l33.8-14.6c3.7,4.8,9.4,8,16,8c1.2,0,2.4-0.2,3.5-0.4l37.7,83.6C1974.5,712.7,1974.4,712.8,1974.2,713z
			 M1994.7,709.6c-2.3-0.9-4.9-1.5-7.5-1.5c-1.2,0-2.4,0.2-3.5,0.4l-8.1-18l-29.6-65.6c2.8-2.2,5-5.1,6.3-8.5l21.8,2.7l68.2,8.5
			c0.5,3.9,2.1,7.5,4.5,10.4l-8.8,12.1L1994.7,709.6z M2117.8,723.4h-111.1c-0.8-3-2.2-5.7-4.1-8l52.1-71.7c2.3,0.9,4.9,1.5,7.5,1.5
			c2.7,0,5.2-0.5,7.5-1.5l52.1,71.7C2120,717.8,2118.6,720.5,2117.8,723.4z M2140.9,708.5c-1.2-0.2-2.3-0.4-3.5-0.4
			c-2.7,0-5.2,0.5-7.5,1.5l-21.3-29.4l-30.8-42.3c2.4-2.9,4-6.5,4.5-10.4l69.2-8.6l20.8-2.6c1.3,3.2,3.3,6,5.9,8.2l-36.1,81.1
			L2140.9,708.5z M2150.3,713c-0.1-0.1-0.3-0.2-0.4-0.4l1.3-2.9l36.4-80.8c1.2,0.2,2.3,0.4,3.5,0.4c6.5,0,12.1-3.1,15.8-7.8
			l43.8,18.8L2150.3,713z M2211,612.3c0.2-1.1,0.3-2.1,0.3-3.2c0-6-2.6-11.3-6.7-15L2228,550l19-35.8c0.3,0.1,0.6,0.1,0.8,0.2
			l7.5,117.2L2211,612.3z M2257.7,513.7c6.4-2.1,11.4-7.2,13.2-13.7h5.1l12.1,0c1.3,5.1,4.5,9.4,8.8,12.1l-32.9,101.1L2257.7,513.7z
			"/>
	</g>
	<g>
		<path class="st0" d="M2662,745h-81.7c-10.4,0-19.9-1.8-28.8-5.4c-8.8-3.6-16.4-8.7-22.9-15.2c-6.5-6.5-11.5-14.3-15.1-23.2
			c-3.6-8.9-5.4-18.7-5.4-29.4c0-10.6,1.8-20.4,5.4-29.4c3.6-8.9,8.7-16.7,15.1-23.2c6.5-6.5,14.1-11.6,22.9-15.2
			c8.8-3.6,18.4-5.4,28.8-5.4c10.2,0,19.7,1.8,28.6,5.4c8.8,3.6,16.5,8.7,22.9,15.2c6.5,6.5,11.5,14.2,15.1,23.2
			c3.6,8.9,5.4,18.7,5.4,29.3c0,12.6-2.8,24.1-8.4,34.6c-5.6,10.4-14,18.8-25.1,25.3v0.4h43.2V745z M2523.4,671.7
			c0,8,1.3,15.7,3.9,22.9c2.6,7.2,6.4,13.6,11.2,19.2c4.8,5.6,10.8,10,17.9,13.3c7.1,3.3,15,4.9,23.9,4.9c8.7,0,16.7-1.6,23.7-4.9
			c7.1-3.3,13-7.7,18-13.3c4.9-5.6,8.7-12,11.4-19.2c2.7-7.2,4-14.9,4-22.9c0-8-1.4-15.7-4-22.9c-2.7-7.2-6.5-13.6-11.4-19.2
			c-4.9-5.6-10.9-10-18-13.3c-7.1-3.3-15-4.9-23.7-4.9c-8.9,0-16.9,1.6-23.9,4.9c-7.1,3.3-13,7.7-17.9,13.3
			c-4.8,5.6-8.6,12-11.2,19.2C2524.7,656,2523.4,663.7,2523.4,671.7z"/>
		<path class="st0" d="M2884.2,745h-14.5V615h-47.8v-12.9H2932V615h-47.8V745z"/>
		<path class="st0" d="M3164.7,748.6c-10.8,0-19.6-1.8-26.4-5.5c-6.9-3.7-12.3-8.4-16.3-14c-4-5.7-6.8-11.8-8.4-18.5
			c-1.5-6.7-2.3-12.9-2.3-18.9v-89.6h14.5v88c0,5.8,0.7,11.4,2,16.9c1.3,5.4,3.5,10.3,6.6,14.5c3,4.2,7,7.7,12,10.3
			c5,2.6,11.1,3.9,18.4,3.9c7.3,0,13.4-1.3,18.4-3.9c5-2.6,9-6.1,12-10.3c3-4.2,5.2-9.1,6.6-14.5c1.3-5.4,2-11.1,2-16.9v-88h14.5
			v89.6c0,5.9-0.8,12.2-2.3,18.9c-1.5,6.7-4.3,12.8-8.4,18.5c-4,5.7-9.5,10.3-16.4,14C3184.1,746.7,3175.3,748.6,3164.7,748.6z"/>
		<path class="st0" d="M3524.9,602l-62.9,32.8l-58.9-32.8l-11.5,7.3V745h14.5V620.9h0.4l111.4,66.3V745h14.5V612.2L3524.9,602z
			 M3478.5,646.1l39.5-21.2l-0.1,44.6L3478.5,646.1z"/>
	</g>
</g>
</svg>
